HIERARCHY
ROOT Hips
{
	OFFSET 0.00000 0.00000 0.00000
	CHANNELS 6 Xposition Yposition Zposition Zrotation Yrotation Xrotation 
	JOINT LHipJoint
	{
		OFFSET 0 0 0
		CHANNELS 3 Zrotation Yrotation Xrotation
		JOINT LeftUpLeg
		{
			OFFSET 1.56857 -1.73443 1.15205
			CHANNELS 3 Zrotation Yrotation Xrotation
			JOINT LeftLeg
			{
				OFFSET 2.39362 -6.57643 0.00000
				CHANNELS 3 Zrotation Yrotation Xrotation
				JOINT LeftFoot
				{
					OFFSET 2.50952 -6.89485 0.00000
					CHANNELS 3 Zrotation Yrotation Xrotation
					JOINT LeftToeBase
					{
						OFFSET 0.17171 -0.47178 1.88682
						CHANNELS 3 Zrotation Yrotation Xrotation
						End Site
						{
							OFFSET 0.00000 -0.00000 0.98146
						}
					}
				}
			}
		}
	}
	JOINT RHipJoint
	{
		OFFSET 0 0 0
		CHANNELS 3 Zrotation Yrotation Xrotation
		JOINT RightUpLeg
		{
			OFFSET -1.28153 -1.73443 1.15205
			CHANNELS 3 Zrotation Yrotation Xrotation
			JOINT RightLeg
			{
				OFFSET -2.26861 -6.23296 0.00000
				CHANNELS 3 Zrotation Yrotation Xrotation
				JOINT RightFoot
				{
					OFFSET -2.54143 -6.98254 0.00000
					CHANNELS 3 Zrotation Yrotation Xrotation
					JOINT RightToeBase
					{
						OFFSET -0.23309 -0.64041 1.93119
						CHANNELS 3 Zrotation Yrotation Xrotation
						End Site
						{
							OFFSET -0.00000 -0.00000 1.02013
						}
					}
				}
			}
		}
	}
	JOINT LowerBack
	{
		OFFSET 0 0 0
		CHANNELS 3 Zrotation Yrotation Xrotation
		JOINT Spine
		{
			OFFSET -0.07096 2.10460 -0.27878
			CHANNELS 3 Zrotation Yrotation Xrotation
			JOINT Spine1
			{
				OFFSET -0.00826 2.13662 -0.08279
				CHANNELS 3 Zrotation Yrotation Xrotation
				JOINT Neck
				{
					OFFSET 0 0 0
					CHANNELS 3 Zrotation Yrotation Xrotation
					JOINT Neck1
					{
						OFFSET 0.03239 1.77799 0.24435
						CHANNELS 3 Zrotation Yrotation Xrotation
						JOINT Head
						{
							OFFSET 0.01026 1.74194 -0.49664
							CHANNELS 3 Zrotation Yrotation Xrotation
							End Site
							{
								OFFSET 0.00170 1.83057 -0.19653
							}
						}
					}
				}
				JOINT LeftShoulder
				{
					OFFSET 0 0 0
					CHANNELS 3 Zrotation Yrotation Xrotation
					JOINT LeftArm
					{
						OFFSET 3.19178 1.35907 -0.31412
						CHANNELS 3 Zrotation Yrotation Xrotation
						JOINT LeftForeArm
						{
							OFFSET 4.85247 -0.00000 -0.00000
							CHANNELS 3 Zrotation Yrotation Xrotation
							JOINT LeftHand
							{
								OFFSET 3.55584 -0.00000 0.00000
								CHANNELS 3 Zrotation Yrotation Xrotation
								JOINT LeftFingerBase
								{
									OFFSET 0 0 0
									CHANNELS 3 Zrotation Yrotation Xrotation
									JOINT LeftHandIndex1
									{
										OFFSET 0.69320 -0.00000 0.00000
										CHANNELS 3 Zrotation Yrotation Xrotation
										End Site
										{
											OFFSET 0.55888 -0.00000 0.00000
										}
									}
								}
								JOINT LThumb
								{
									OFFSET 0 0 0
									CHANNELS 3 Zrotation Yrotation Xrotation
									End Site
									{
										OFFSET 0.56741 -0.00000 0.56741
									}
								}
							}
						}
					}
				}
				JOINT RightShoulder
				{
					OFFSET 0 0 0
					CHANNELS 3 Zrotation Yrotation Xrotation
					JOINT RightArm
					{
						OFFSET -3.28999 1.24191 -0.26899
						CHANNELS 3 Zrotation Yrotation Xrotation
						JOINT RightForeArm
						{
							OFFSET -4.64462 -0.00000 0.00000
							CHANNELS 3 Zrotation Yrotation Xrotation
							JOINT RightHand
							{
								OFFSET -3.40703 -0.00000 0.00000
								CHANNELS 3 Zrotation Yrotation Xrotation
								JOINT RightFingerBase
								{
									OFFSET 0 0 0
									CHANNELS 3 Zrotation Yrotation Xrotation
									JOINT RightHandIndex1
									{
										OFFSET -0.61958 -0.00000 0.00000
										CHANNELS 3 Zrotation Yrotation Xrotation
										End Site
										{
											OFFSET -0.49952 -0.00000 0.00000
										}
									}
								}
								JOINT RThumb
								{
									OFFSET 0 0 0
									CHANNELS 3 Zrotation Yrotation Xrotation
									End Site
									{
										OFFSET -0.50715 -0.00000 0.50715
									}
								}
							}
						}
					}
				}
			}
		}
	}
}
MOTION
Frames: 5
Frame Time: .0083333
-17.7245 19.2615 2.9525 -41.3888 39.8375 -30.7494 0.0000 0.0000 0.0000 12.2889 21.2602 -11.2990 2.8246 10.4056 30.3005 -0.1142 8.6969 3.5581 0.2018 -2.8925 -7.9795 0.0000 0.0000 0.0000 -5.4406 -12.8987 -11.2421 -0.3150 -3.6080 9.9762 -0.8403 -15.1509 -28.6041 -0.5265 -4.6499 12.9128 -8.0825 3.7512 18.4296 -3.5152 3.4905 6.0767 0.0545 1.7867 -3.9657 5.0344 11.5502 -16.6729 -3.3498 15.1053 13.2397 -0.1339 7.1618 7.4039 -0.0000 -0.0000 0.0000 -15.7813 1.2555 3.6388 18.4948 -28.7861 -4.7851 -0.0000 0.0000 -8.4747 43.9656 -29.0274 -25.0804 -7.1250 0.0000 -0.0000 7.4205 -7.3719 -8.3777 -0.0000 -0.0000 0.0000 48.3653 -12.9839 11.4339 -18.0943 28.2778 -4.5938 0.0000 -0.0000 -19.0528 -21.2285 -37.9166 13.4256 7.1250 -0.0000 -0.0000 19.2334 -68.9712 -11.2013
-17.5838 19.3300 2.9468 -41.4362 39.8264 -31.1904 0.0000 0.0000 0.0000 12.5614 21.6895 -11.2737 2.9423 10.6010 30.9457 -0.0754 8.0038 3.8563 0.2755 -3.3759 -9.3271 0.0000 0.0000 0.0000 -5.8382 -12.9688 -11.4236 -0.2850 -3.4333 9.4874 -0.8996 -14.9260 -28.7942 -0.5630 -4.8061 13.3562 -7.9638 3.5787 18.4200 -3.6903 3.3075 6.2968 -0.1469 1.6927 -3.6956 5.5570 11.7276 -16.7635 -3.3481 15.2336 13.3998 -0.1777 7.2436 7.5171 -0.0000 0.0000 0.0000 -15.0538 -1.0764 3.2700 17.5934 -27.6334 -4.3590 -0.0000 0.0000 -7.5167 41.5784 -27.5371 -22.3014 -7.1250 0.0000 -0.0000 6.4823 -4.6979 -7.0351 -0.0000 0.0000 0.0000 46.6648 -13.1138 11.6883 -18.4574 28.7389 -4.7671 0.0000 -0.0000 -19.5905 -20.6015 -37.5786 12.9117 7.1250 -0.0000 -0.0000 19.5728 -68.4654 -11.1829
-17.4439 19.3832 2.9381 -41.4122 39.8926 -31.5545 0.0000 0.0000 0.0000 12.6169 21.9539 -11.2527 3.0243 10.7343 31.3891 -0.0792 7.9230 3.6734 0.1958 -2.8496 -7.8602 0.0000 0.0000 0.0000 -6.3420 -13.1675 -11.7025 -0.2624 -3.2956 9.1029 -0.9301 -14.8609 -28.9424 -0.5997 -4.9572 13.7864 -8.3355 3.3425 18.4116 -3.4708 2.9666 6.4993 0.3768 1.5138 -3.4782 5.1485 11.9937 -16.8352 -3.1622 15.6688 13.5713 0.0024 7.4414 7.5540 0.0000 -0.0000 0.0000 -15.2501 -2.9480 2.6625 16.7675 -26.5503 -3.9829 -0.0000 0.0000 -6.4824 38.7566 -25.6912 -19.1889 -7.1250 0.0000 -0.0000 5.3043 -1.5709 -5.4710 0.0000 -0.0000 0.0000 43.9788 -12.8978 12.4816 -18.7367 29.0902 -4.9022 0.0000 -0.0000 -20.0977 -19.9914 -37.0844 12.3729 7.1250 -0.0000 -0.0000 19.7020 -67.8248 -10.9750
-17.2942 19.4227 2.9302 -41.5331 39.7524 -32.1097 0.0000 0.0000 0.0000 12.9217 22.2428 -10.9068 3.0491 10.7742 31.5221 -0.1060 7.4478 2.3115 0.2744 -3.3693 -9.3088 0.0000 0.0000 0.0000 -6.6054 -12.9997 -11.7469 -0.2354 -3.1229 8.6211 -0.9691 -15.0008 -29.3509 -0.6220 -5.0472 14.0432 -7.7460 3.2392 18.1423 -3.8985 2.9877 6.8087 -0.3847 1.5219 -2.9601 6.1974 12.1046 -16.4075 -3.1150 15.5870 13.3353 -0.1692 7.4747 7.4812 -0.0000 -0.0000 0.0000 -13.9697 -5.4935 3.0233 16.0207 -25.5487 -3.6549 -0.0000 0.0000 -6.2836 36.1211 -23.5173 -16.2355 -7.1250 0.0000 -0.0000 4.2009 1.7337 -4.0830 -0.0000 -0.0000 0.0000 42.9258 -13.3412 12.3874 -19.0904 29.5309 -5.0753 0.0000 -0.0000 -20.1297 -19.4325 -36.6579 11.8944 7.1250 -0.0000 -0.0000 19.8630 -67.2646 -10.8159
-17.1312 19.4470 2.9217 -41.4771 39.5501 -32.7127 0.0000 0.0000 0.0000 13.1507 22.4786 -9.9939 2.9591 10.6286 31.0372 -0.1402 7.2921 0.5861 0.3789 -3.9534 -10.9455 0.0000 0.0000 0.0000 -6.9902 -13.1114 -11.8189 -0.2202 -3.0209 8.3370 -0.9259 -15.2510 -29.3040 -0.5236 -4.6373 12.8769 -7.7931 3.2516 18.5354 -3.7750 2.9562 6.8071 -0.2413 1.5095 -3.1730 6.4571 12.1421 -16.0919 -3.2677 15.6466 13.6231 -0.2520 7.5031 7.5611 -0.0000 -0.0000 0.0000 -13.9690 -7.5673 3.3208 15.3019 -24.5650 -3.3504 -0.0000 0.0000 -5.4753 33.7728 -21.4304 -13.7308 -7.1250 0.0000 -0.0000 3.1488 4.7361 -2.8825 -0.0000 -0.0000 0.0000 40.6163 -14.1148 13.0994 -19.6614 30.2322 -5.3598 0.0000 -0.0000 -20.4901 -18.9061 -36.5480 11.5276 7.1250 -0.0000 -0.0000 20.3581 -67.0071 -10.9757
